<?xml version="1.0" encoding="UTF-8"?>
<!-- Created with Inkscape (http://www.inkscape.org/) -->
<svg width="75mm" height="75mm" version="1.1" viewBox="0 0 75 75" xmlns="http://www.w3.org/2000/svg" xmlns:xlink="http://www.w3.org/1999/xlink">
 <defs>
  <filter id="filter66033" x="-.024963" y="-.024963" width="1.0499" height="1.0499" color-interpolation-filters="sRGB">
   <feGaussianBlur stdDeviation="0.16642001"/>
  </filter>
  <linearGradient id="linearGradient70241" x1="129.8" x2="147.69" y1="107.9" y2="107.9" gradientTransform="translate(-5.6885 -18.389)" gradientUnits="userSpaceOnUse">
   <stop stop-color="#0f0f0f" offset="0"/>
   <stop stop-color="#0f0f0f" stop-opacity="0" offset="1"/>
  </linearGradient>
  <filter id="filter71097" x="-.021636" y="-.015121" width="1.0433" height="1.0302" color-interpolation-filters="sRGB">
   <feGaussianBlur stdDeviation="1.0489399"/>
  </filter>
  <filter id="filter71101" x="-.10359" y="-.057562" width="1.2072" height="1.1151" color-interpolation-filters="sRGB">
   <feGaussianBlur stdDeviation="0.40106795"/>
  </filter>
 </defs>
 <g transform="translate(-89.811 -61.603)">
  <circle cx="121.81" cy="109.11" r="26" fill="#1a1a1a" stroke="#000" stroke-width=".5"/>
  <g>
   <path transform="matrix(.26458 0 0 .26458 -5.6885 -18.389)" d="m420.8 409.89a94.488 94.488 0 0 0-33.398 72.004 94.488 94.488 0 0 0 94.488 94.488 94.488 94.488 0 0 0 21.867-2.5957 92.559 112.33 0 0 1-0.79687 0.0352 92.559 112.33 0 0 1-92.561-112.33 92.559 112.33 0 0 1 10.4-51.602z" fill="#0f0f0f" filter="url(#filter71097)" opacity=".63141" stroke-width=".87815"/>
   <ellipse transform="rotate(-16.011)" cx="107.33" cy="137.97" rx="4.2682" ry="6.188" fill="#fff" stroke-width=".22812"/>
   <ellipse cx="143.06" cy="113.21" rx="1.7376" ry="2.7432" fill="#fff" stroke-width=".21057"/>
   <ellipse transform="matrix(.71554 -.69857 -.8374 -.5466 -5.6885 -18.389)" cx="-17.017" cy="-176.08" rx="4.6459" ry="8.3611" fill="#0f0f0f" filter="url(#filter71101)" opacity=".88462"/>
  </g>
  <g transform="matrix(1.4757 .85929 -.8595 1.3934 103.26 -106.63)" fill="#323232" stroke="#000">
   <path transform="scale(.26458)" d="m302.28 350.02-37.254 0.0859 0.0742 10.521c-0.0228 0.17687-0.0351 0.35403-0.0371 0.53125 1.9e-4 0.21113 0.0152 0.4222 0.0449 0.63282l0.12315 0.58984c1.2406 4.5463 9.103 7.9392 18.398 7.9394 9.4233-2e-3 17.349-3.4879 18.434-8.1074z"/>
   <ellipse cx="75.044" cy="92.556" rx="4.9122" ry="2.4242" stroke-width=".26458"/>
  </g>
  <g transform="translate(-6.4837 -16.237)">
   <path d="m139.69 100.45c2.4594-4.6446 6.3099-7.6696 11.971-7.6431 3.0216-0.20818 5.3777 2.9576 3.4276 3.7145-7.0854 0.88967-8.9424 1.0845-11.647 7.59-0.42488 1.1162-5.1762-0.68343-3.7517-3.6614z" fill="#906d4e"/>
   <g fill="none">
    <g stroke="#2a1b14" stroke-width=".4">
     <path d="m146.88 98.732s-0.93273 0.19067-2.5406-1.3842c-1.6079-1.5749-0.51138-1.9268-0.51138-1.9268"/>
     <path d="m148.61 97.727s-1.3239-0.28431-2.1369-1.7622c-0.81301-1.4779-0.42664-1.9619-0.42664-1.9619"/>
     <path d="m151.4 97.109s-0.92323-0.49995-1.8411-1.9062c-0.91791-1.4062-0.63895-2.1181-0.63895-2.1181"/>
     <path d="m153.92 96.631s-0.69768-0.29696-1.6156-1.7032c-0.91791-1.4062-0.91805-1.8709-0.91805-1.8709"/>
     <path d="m144.26 101.98s-1.5772 0.3436-2.7639-0.81007c-1.1867-1.1537-0.95794-1.863-0.95794-1.863"/>
     <path d="m145.61 99.944s-1.5772 0.3436-2.7639-0.81008c-1.1867-1.1537-0.95794-1.863-0.95794-1.863"/>
    </g>
    <path d="m139.69 100.45c2.4594-4.6446 6.3099-7.6696 11.971-7.6431 3.0216-0.20818 5.3777 2.9576 3.4276 3.7145-7.0854 0.88967-8.9424 1.0845-11.647 7.59-0.42488 1.1162-5.1762-0.68343-3.7517-3.6614z" stroke="#000" stroke-width=".5"/>
   </g>
  </g>
  <path d="m127.12 82.699-2.3637 3.8959c-0.0491 0.06-0.0943 0.1227-0.1354 0.18758-0.0479 0.0779-0.0898 0.159-0.12609 0.2434l-0.0863 0.24545c-0.54951 1.9581 1.7487 4.9962 5.378 7.1096 3.6797 2.1417 7.5667 2.6589 9.0408 1.2025l2.8577-4.4462-0.0393-0.0227a8.3889 3.967 29.793 0 1-9.2811-0.91313 8.3889 3.967 29.793 0 1-5.2214-7.4889z" fill="url(#linearGradient70241)" stroke="#000" stroke-width=".44231"/>
 </g>
 <g transform="translate(-95.077 -77.701)">
  <path d="m150.92 78.787 0.14064 5.2502-1.6176-1.2908 0.78457 4.9684-4.7066-2.4762 1.0164 2.8902-0.76791 0.08644-5.3268-1.2167 4.798 3.7364-2.8604 1.1833 4.9734 1.6067-0.0206 0.05886-4.6224 0.51863 3.07 1.9881-5.1243 4.1331 5.1672-1.5247-1.4373 2.4145 4.8154-1.5704-0.32239 0.54188 0.79013-0.25786 1.3865 3.0399 9e-3 4.7047 3.7513-7.3378 1.35 2.9607 0.91003-2.6847 1.3627 0.34429-0.96483-1.5181 7e-3 -0.0232 6.8404 5.2139-2.7389-5.0425 1.3484 0.3414-2.7206-4.2827 1.5779-0.93775 8.5143-1.5523-10.681-2.0985 0.70437-1.5501 1.9138-1.1382-1.3238-0.16125 3.089-6.801-6.9563 5.524 0.27558-4.3037-3.2336 2.8474z" fill="#e23c1f" stroke="#3a0000" stroke-width=".26533" style="mix-blend-mode:normal"/>
  <path transform="matrix(1.4931 0 0 1.4392 -98.442 -50.744)" d="m167.38 91.996 0.0754 2.9183-0.86673-0.71747 0.42039 2.7617-2.5219-1.3764 0.54463 1.6065-0.41146 0.04805-2.8542-0.67629 2.5708 2.0769-1.5326 0.65772 2.6649 0.89311-0.011 0.0327-2.4768 0.28828 1.645 1.1051-2.7457 2.2974 2.7687-0.84748-0.77014 1.3421 2.5802-0.87292-0.17274 0.30121 0.42338-0.14334 0.74289 1.6897 5e-3 2.6151 2.01-4.0787 0.72335 1.6457 0.48762-1.4923 0.73015 0.19138-0.51697-0.84385 4e-3 -0.0129 3.6652 2.8981-1.4675-2.8029 0.7225 0.18977-1.4577-2.3805 0.84544-0.52125 4.5622-0.86282-5.7233-1.1664 0.37742-0.86161 1.0254-0.63268-0.70931-0.08963 1.6552-3.7804-3.7273 3.0706 0.14766-2.3922-1.7326 1.5827z" fill="#e2a91f" filter="url(#filter66033)" style="mix-blend-mode:normal"/>
 </g>
</svg>
