<svg width="75" height="75" viewBox="0 0 75 75" fill="none" xmlns="http://www.w3.org/2000/svg">
<g id="bomb 1" clip-path="url(#clip0_2_2)">
<g id="bomb">
<path id="Vector" d="M31.999 73.507C46.3584 73.507 57.999 61.8664 57.999 47.507C57.999 33.1476 46.3584 21.507 31.999 21.507C17.6396 21.507 5.999 33.1476 5.999 47.507C5.999 61.8664 17.6396 73.507 31.999 73.507Z" fill="#1A1A1A" stroke="black" stroke-width="0.5"/>
<g id="Group">
<g id="Vector_2" opacity="0.63141" filter="url(#filter0_f_2_2)">
<path d="M15.8358 28.4567C13.0693 30.8012 10.846 33.7196 9.32016 37.0093C7.79429 40.2989 7.00237 43.8812 6.99933 47.5075C6.99933 54.1378 9.63321 60.4966 14.3216 65.1849C19.0099 69.8733 25.3686 72.5071 31.999 72.5071C33.9477 72.5045 35.8894 72.274 37.7845 71.8204C37.7143 71.8238 37.644 71.8269 37.5737 71.8297C34.3577 71.8298 31.1731 71.0611 28.2019 69.5676C25.2307 68.074 22.5309 65.8848 20.2568 63.1251C17.9827 60.3653 16.1788 57.0889 14.9481 53.483C13.7174 49.8771 13.0839 46.0124 13.0839 42.1094C13.0885 37.3569 14.0321 32.6751 15.8355 28.4566L15.8358 28.4567Z" fill="#0F0F0F"/>
</g>
<path id="Vector_3" d="M53.1175 47.359C55.3833 46.7088 56.4559 43.5187 55.5133 40.2337C54.5707 36.9488 51.9697 34.8129 49.7039 35.463C47.4381 36.1132 46.3654 39.3033 47.3081 42.5883C48.2507 45.8732 50.8517 48.0092 53.1175 47.359Z" fill="white"/>
<path id="Vector_4" d="M53.249 54.3502C54.2087 54.3502 54.9866 53.122 54.9866 51.607C54.9866 50.092 54.2087 48.8638 53.249 48.8638C52.2894 48.8638 51.5114 50.092 51.5114 51.607C51.5114 53.122 52.2894 54.3502 53.249 54.3502Z" fill="white"/>
<g id="Vector_5" opacity="0.88462" filter="url(#filter1_f_2_2)">
<path d="M32.772 23.5707C34.6079 21.7783 39.231 22.3714 43.0979 24.8954C46.9648 27.4194 48.6111 30.9186 46.7751 32.7111C44.9392 34.5035 40.3161 33.9104 36.4492 31.3864C32.5824 28.8623 30.936 25.3632 32.772 23.5707Z" fill="#0F0F0F"/>
</g>
</g>
<g id="Group_2">
<path id="Vector_6" d="M51.8746 29.531L37.3096 21.093L34.946 24.9886C34.8969 25.0486 34.8518 25.1111 34.8107 25.176C34.7628 25.2539 34.7206 25.3351 34.6843 25.4195L34.5983 25.665C34.0488 27.6231 36.347 30.6615 39.9761 32.7748C43.6558 34.9164 47.5431 35.4332 49.0172 33.9768L51.8746 29.531Z" fill="#323232" stroke="black" stroke-width="0.442387"/>
<path id="Vector_7" d="M42.5559 28.597C46.5594 30.9282 50.7377 31.3057 51.8885 29.4401C53.0392 27.5746 50.7266 24.1724 46.7231 21.8412C42.7197 19.51 38.5414 19.1325 37.3906 20.9981C36.2399 22.8636 38.5525 26.2658 42.5559 28.597Z" fill="#323232" stroke="black" stroke-width="0.442387"/>
</g>
<g id="Group_3">
<path id="Vector_8" d="M43.3953 22.61C45.8547 17.9654 49.7052 14.9404 55.3663 14.9669C58.3879 14.7587 60.744 17.9245 58.7939 18.6814C51.7085 19.5711 49.8515 19.7659 47.1469 26.2714C46.722 27.3876 41.9707 25.588 43.3952 22.61H43.3953Z" fill="#906D4E"/>
<g id="Group_4">
<g id="Group_5">
<path id="Vector_9" d="M50.5853 20.892C50.5853 20.892 49.6526 21.0827 48.0447 19.5078C46.4368 17.9329 47.5333 17.581 47.5333 17.581" stroke="#2A1B14" stroke-width="0.4"/>
<path id="Vector_10" d="M52.3153 19.887C52.3153 19.887 50.9914 19.6027 50.1784 18.1248C49.3654 16.6469 49.7518 16.1629 49.7518 16.1629" stroke="#2A1B14" stroke-width="0.4"/>
<path id="Vector_11" d="M55.1053 19.269C55.1053 19.269 54.1821 18.7691 53.2642 17.3628C52.3463 15.9566 52.6252 15.2447 52.6252 15.2447" stroke="#2A1B14" stroke-width="0.4"/>
<path id="Vector_12" d="M57.6253 18.791C57.6253 18.791 56.9276 18.494 56.0097 17.0878C55.0918 15.6816 55.0917 15.2169 55.0917 15.2169" stroke="#2A1B14" stroke-width="0.4"/>
<path id="Vector_13" d="M47.9653 24.14C47.9653 24.14 46.3881 24.4836 45.2014 23.3299C44.0147 22.1762 44.2435 21.4669 44.2435 21.4669" stroke="#2A1B14" stroke-width="0.4"/>
<path id="Vector_14" d="M49.3153 22.104C49.3153 22.104 47.7381 22.4476 46.5514 21.2939C45.3647 20.1402 45.5934 19.4309 45.5934 19.4309" stroke="#2A1B14" stroke-width="0.4"/>
</g>
<path id="Vector_15" d="M43.3953 22.61C45.8547 17.9654 49.7052 14.9404 55.3663 14.9669C58.3879 14.7587 60.744 17.9245 58.7939 18.6814C51.7085 19.5711 49.8515 19.7659 47.1469 26.2714C46.722 27.3876 41.9707 25.588 43.3952 22.61H43.3953Z" stroke="black" stroke-width="0.5"/>
</g>
</g>
<path id="Vector_16" d="M37.309 21.096L34.9453 24.9919C34.8962 25.0519 34.851 25.1146 34.8099 25.1795C34.762 25.2574 34.7201 25.3385 34.6838 25.4229L34.5975 25.6683C34.048 27.6264 36.3462 30.6645 39.9755 32.7779C43.6552 34.9196 47.5422 35.4368 49.0163 33.9804L51.874 29.5342L51.8347 29.5115C51.2492 30.3702 49.95 30.7554 48.2153 30.5847C46.4807 30.4141 44.4484 29.7011 42.5536 28.5984C40.6713 27.5015 39.0739 26.1067 38.0994 24.709C37.1249 23.3113 36.8498 22.0204 37.3322 21.1095L37.309 21.096Z" fill="url(#paint0_linear_2_2)" stroke="black" stroke-width="0.44231"/>
</g>
<g id="spark">
<path id="Vector_17" d="M55.843 1.086L55.9836 6.3362L54.366 5.04539L55.1506 10.0138L50.444 7.5376L51.4604 10.4278L50.6925 10.5142L45.3657 9.29754L50.1637 13.0339L47.3033 14.2172L52.2767 15.8239L52.2561 15.8828L47.6337 16.4014L50.7037 18.3895L45.5794 22.5226L50.7466 20.9979L49.3093 23.4124L54.1247 21.842L53.8023 22.3839L54.5924 22.126L55.9789 25.1659L55.9879 29.8706L59.7392 22.5328L61.0892 25.4935L61.9993 22.8088L63.362 23.1531L62.3971 21.635L62.4041 21.6118L69.2445 26.8257L66.5056 21.7832L67.854 22.1246L65.1334 17.8419L66.7113 16.9042L75.2256 15.3519L64.5446 13.2534L65.249 11.7033L67.1628 10.5651L65.839 10.4038L68.928 3.60284L61.9717 9.12684L62.2473 4.82314L59.0137 7.67053L55.843 1.086Z" fill="#E23C1F" stroke="#3A0000" stroke-width="0.26533"/>
<g id="Vector_18" filter="url(#filter2_f_2_2)">
<path d="M56.3961 3.95564L56.5086 8.15566L55.2145 7.12308L55.8422 11.0977L52.0768 9.1168L52.89 11.4289L52.2756 11.498L48.014 10.5247L51.8525 13.5138L49.5641 14.4604L53.5431 15.7457L53.5267 15.7928L49.8286 16.2077L52.2847 17.7981L48.1851 21.1046L52.3191 19.8849L51.1692 21.8164L55.0217 20.5601L54.7637 20.9936L55.3959 20.7873L56.5051 23.2191L56.5126 26.9828L59.5137 21.1127L60.5937 23.4812L61.3218 21.3335L62.412 21.6089L61.6401 20.3945L61.6461 20.3759L67.1186 24.5468L64.9275 20.5129L66.0062 20.786L63.8297 17.36L65.0921 16.6098L71.9039 15.3681L63.3584 13.6894L63.9219 12.4494L65.453 11.5388L64.3939 11.4098L66.8653 5.96905L61.3 10.3883L61.5205 6.9454L58.9336 9.22323L56.3961 3.95564Z" fill="#E2A91F"/>
</g>
</g>
</g>
<defs>
<filter id="filter0_f_2_2" x="6.44427" y="27.9015" width="31.8953" height="45.1607" filterUnits="userSpaceOnUse" color-interpolation-filters="sRGB">
<feFlood flood-opacity="0" result="BackgroundImageFix"/>
<feBlend mode="normal" in="SourceGraphic" in2="BackgroundImageFix" result="shape"/>
<feGaussianBlur stdDeviation="0.277529" result="effect1_foregroundBlur_2_2"/>
</filter>
<filter id="filter1_f_2_2" x="31.2189" y="21.733" width="17.1093" height="12.8158" filterUnits="userSpaceOnUse" color-interpolation-filters="sRGB">
<feFlood flood-opacity="0" result="BackgroundImageFix"/>
<feBlend mode="normal" in="SourceGraphic" in2="BackgroundImageFix" result="shape"/>
<feGaussianBlur stdDeviation="0.401068" result="effect1_foregroundBlur_2_2"/>
</filter>
<filter id="filter2_f_2_2" x="47.5261" y="3.46773" width="24.8657" height="24.003" filterUnits="userSpaceOnUse" color-interpolation-filters="sRGB">
<feFlood flood-opacity="0" result="BackgroundImageFix"/>
<feBlend mode="normal" in="SourceGraphic" in2="BackgroundImageFix" result="shape"/>
<feGaussianBlur stdDeviation="0.243955" result="effect1_foregroundBlur_2_2"/>
</filter>
<linearGradient id="paint0_linear_2_2" x1="34.3005" y1="27.908" x2="52.1905" y2="27.908" gradientUnits="userSpaceOnUse">
<stop stop-color="#0F0F0F"/>
<stop offset="1" stop-color="#0F0F0F" stop-opacity="0"/>
</linearGradient>
<clipPath id="clip0_2_2">
<rect width="75" height="75" fill="white"/>
</clipPath>
</defs>
</svg>
