<?xml version="1.0" encoding="UTF-8" standalone="no"?>
<!-- Created with Inkscape (http://www.inkscape.org/) -->

<svg
   width="210mm"
   height="297mm"
   viewBox="0 0 210 297"
   version="1.1"
   id="svg5"
   inkscape:version="1.1.2 (b8e25be833, 2022-02-05)"
   sodipodi:docname="drawing-1.svg"
   xmlns:inkscape="http://www.inkscape.org/namespaces/inkscape"
   xmlns:sodipodi="http://sodipodi.sourceforge.net/DTD/sodipodi-0.dtd"
   xmlns="http://www.w3.org/2000/svg"
   xmlns:svg="http://www.w3.org/2000/svg">
  <sodipodi:namedview
     id="namedview7"
     pagecolor="#ffffff"
     bordercolor="#666666"
     borderopacity="1.0"
     inkscape:pageshadow="2"
     inkscape:pageopacity="0.0"
     inkscape:pagecheckerboard="0"
     inkscape:document-units="mm"
     showgrid="false"
     inkscape:zoom="4.1474471"
     inkscape:cx="197.59143"
     inkscape:cy="202.53423"
     inkscape:window-width="1920"
     inkscape:window-height="1009"
     inkscape:window-x="-8"
     inkscape:window-y="-8"
     inkscape:window-maximized="1"
     inkscape:current-layer="layer1" />
  <defs
     id="defs2" />
  <g
     inkscape:label="Layer 1"
     inkscape:groupmode="layer"
     id="layer1">
    <g
       aria-label="33m"
       id="text13285"
       style="font-size:3.88056px;line-height:1.25;stroke-width:0.264583" />
    <path
       id="path18600"
       style="fill:none;stroke:#000000;stroke-width:0.15905px;stroke-linecap:butt;stroke-linejoin:miter;stroke-opacity:1"
       d="m 50.382166,54.678398 4.561141,-4.188963 m -4.886935,-0.433342 4.886935,4.911199 v 0"
       inkscape:transform-center-x="0.091842557"
       inkscape:transform-center-y="-0.085882232" />
    <circle
       style="fill:#000000;fill-opacity:0;stroke:#000000;stroke-width:0.515968;stroke-miterlimit:4;stroke-dasharray:none;stroke-opacity:1"
       id="path18626"
       cx="52.5"
       cy="52.5"
       r="17.242016" />
    <path
       style="fill:none;stroke:#000000;stroke-width:0.264583px;stroke-linecap:butt;stroke-linejoin:miter;stroke-opacity:1"
       d="M 52.694049,52.628321 35.287286,53.478543"
       id="path18852"
       inkscape:transform-center-x="8.5439073"
       inkscape:transform-center-y="0.42316582" />
    <text
       xml:space="preserve"
       style="font-size:2.82222px;line-height:1.25;font-family:sans-serif;stroke-width:0.264583"
       x="35.505898"
       y="55.057781"
       id="text20410"
       transform="rotate(-4.1320205)"><tspan
         sodipodi:role="line"
         id="tspan20408"
         style="font-size:2.82222px;stroke-width:0.264583"
         x="35.505898"
         y="55.057781">33mm</tspan></text>
    <g
       aria-label="33mm"
       transform="rotate(12.502923)"
       id="text20410-9"
       style="font-size:2.82222px;line-height:1.25;stroke-width:0.264583" />
    <text
       xml:space="preserve"
       style="font-size:3.88056px;line-height:1.25;font-family:sans-serif;stroke-width:0.264583"
       x="51.913227"
       y="57.102581"
       id="text27538"><tspan
         sodipodi:role="line"
         id="tspan27536"
         style="stroke-width:0.264583"
         x="51.913227"
         y="57.102581">S</tspan></text>
    <path
       id="path28321"
       style="fill:none;stroke:#000000;stroke-width:0.264583px;stroke-linecap:butt;stroke-linejoin:miter;stroke-opacity:1"
       d="m 12.302263,56.046273 9.968836,2.200791 m -1.295976,6.441737 -8.67286,-8.642528 11.202271,-4.253529 z" />
    <path
       id="path39919"
       style="fill:none;stroke:#000000;stroke-width:0.264583px;stroke-linecap:butt;stroke-linejoin:miter;stroke-opacity:1"
       d="M 33.447474,73.004862 76.09526,66.595825 v 0 M 52.68202,52.434165 55.103411,69.787266 M 56.3179,64.393155 q 0.03456,0.254488 -0.07977,0.398185 -0.114347,0.143695 -0.402389,0.18282 l -0.975992,0.132575 -0.03304,-0.2433 0.964805,-0.131063 q 0.355164,-0.04823 0.313756,-0.353063 -0.02964,-0.218131 -0.168394,-0.296115 -0.138387,-0.07518 -0.378883,-0.04252 l -0.827773,0.112443 -0.03304,-0.243305 0.964806,-0.131063 q 0.35516,-0.04824 0.313374,-0.355864 -0.03078,-0.226517 -0.18237,-0.294219 -0.151604,-0.0677 -0.414479,-0.03199 l -0.777436,0.105603 -0.03342,-0.246099 1.498944,-0.203615 0.02697,0.198554 -0.199213,0.06407 0.0019,0.01398 q 0.12695,0.05395 0.198838,0.163815 0.07506,0.112274 0.09333,0.246493 0.04786,0.352364 -0.189388,0.492821 l 0.0019,0.01399 q 0.138897,0.05803 0.217898,0.178313 0.07899,0.120288 0.09913,0.268499 z m -0.355187,-2.614759 q 0.03456,0.254486 -0.07977,0.398184 -0.114346,0.143694 -0.40239,0.18282 l -0.97599,0.132575 -0.03304,-0.243302 0.964804,-0.131062 q 0.35516,-0.04824 0.31375,-0.353071 -0.02963,-0.218129 -0.168394,-0.296114 -0.138379,-0.07519 -0.378882,-0.04252 l -0.827774,0.112444 -0.03305,-0.243298 0.964802,-0.131062 q 0.355164,-0.04823 0.313373,-0.355865 -0.03077,-0.226522 -0.18237,-0.29422 -0.151604,-0.0677 -0.414478,-0.03199 l -0.777438,0.105603 -0.03343,-0.246093 1.498945,-0.203615 0.02697,0.198555 -0.199214,0.06407 0.0019,0.01397 q 0.12695,0.05395 0.198837,0.163815 0.07507,0.112273 0.09333,0.246492 0.04786,0.352364 -0.189388,0.492821 l 0.0019,0.01399 q 0.138897,0.05803 0.217899,0.178313 0.079,0.120281 0.09913,0.268497 z M 55.67984,59.675018 q -0.201349,0.02735 -0.337175,-0.07097 -0.132643,-0.09591 -0.197251,-0.277956 l -0.01109,0.0016 q 0.0043,0.241506 -0.10277,0.375675 -0.106712,0.136964 -0.305263,0.163939 -0.176179,0.02394 -0.321431,-0.03893 -0.14525,-0.06286 -0.243933,-0.223195 -0.0983,-0.157539 -0.134385,-0.42321 -0.02129,-0.156605 -0.01439,-0.294253 0.0041,-0.137271 0.04895,-0.268679 l 0.229314,-0.03115 q -0.04722,0.134583 -0.06103,0.284559 -0.01381,0.149982 0.0044,0.28421 0.03648,0.268464 0.155863,0.371881 0.122613,0.10581 0.307174,0.08074 0.187366,-0.02546 0.248336,-0.184684 0.06415,-0.156816 0.02806,-0.422487 l -0.02621,-0.192961 0.209738,-0.02849 0.02659,0.195755 q 0.03342,0.2461 0.15402,0.357874 0.120946,0.11459 0.291537,0.09141 0.145414,-0.01975 0.210425,-0.128274 0.0678,-0.108901 0.04501,-0.276687 -0.02202,-0.162199 -0.08515,-0.270398 -0.06313,-0.108195 -0.151024,-0.210184 l 0.151085,-0.14584 q 0.09832,0.09488 0.181125,0.243123 0.08318,0.151045 0.110533,0.352396 0.04255,0.313212 -0.07677,0.483218 -0.118933,0.172805 -0.334267,0.202054 z M 55.462555,58.0754 q -0.20135,0.02735 -0.337178,-0.07098 -0.132644,-0.09591 -0.197251,-0.277957 l -0.01109,0.0016 q 0.0043,0.241502 -0.102769,0.375673 -0.106712,0.136966 -0.305263,0.16394 -0.17618,0.02394 -0.321434,-0.03894 -0.145251,-0.06286 -0.243932,-0.223194 -0.0983,-0.157538 -0.134384,-0.423207 -0.02129,-0.156606 -0.01439,-0.294256 0.0041,-0.13727 0.04895,-0.268678 l 0.229314,-0.03115 q -0.04723,0.134582 -0.06103,0.284564 -0.01381,0.149978 0.0044,0.284208 0.03648,0.268466 0.155863,0.371881 0.122603,0.105814 0.307175,0.08074 0.187367,-0.02545 0.248335,-0.184683 0.06415,-0.156817 0.02806,-0.422488 l -0.02621,-0.192964 0.209737,-0.02849 0.02659,0.195757 q 0.03343,0.246094 0.154019,0.357874 0.120944,0.114588 0.291536,0.09141 0.145422,-0.01975 0.210426,-0.128275 0.0678,-0.108901 0.04501,-0.276688 -0.02202,-0.162197 -0.08516,-0.270394 -0.06313,-0.108195 -0.151024,-0.210183 L 55.58197,56.7947 q 0.09834,0.09487 0.181125,0.243122 0.08318,0.151046 0.110532,0.352395 0.04255,0.313212 -0.07677,0.483219 -0.118932,0.172804 -0.334267,0.202054 z"
       inkscape:transform-center-x="-2.002518"
       inkscape:transform-center-y="10.153041" />
  </g>
</svg>
